<?xml version="1.0" encoding="utf-8"?>
<!-- Generator: Adobe Illustrator 23.0.1, SVG Export Plug-In . SVG Version: 6.00 Build 0)  -->
<svg version="1.1" id="Capa_1" xmlns="http://www.w3.org/2000/svg" xmlns:xlink="http://www.w3.org/1999/xlink" x="0px" y="0px"
	 width="1920px" height="702px" viewBox="0 0 1920 702" style="enable-background:new 0 0 1920 702;" xml:space="preserve">
<path d="M281.5,520.1l-1.7,1.6c0,0,1,2.3,1.4,2.4c0.3,0.1,14.1,9.4,14.1,9.4l0.4-2l1.8,1c0,0,0.5-3,0.5-3.6c0-0.7-4-4-4.7-5
	C292.7,522.8,281.5,520.1,281.5,520.1"/>
<path d="M17.8,350.7c0-182.5,148-330.5,330.6-330.5c182.5,0,330.5,148,330.5,330.5c0,182.5-148,330.5-330.5,330.5
	C165.9,681.2,17.8,533.2,17.8,350.7 M37.3,350.7c0,171.9,139.2,311.1,311.1,311.1c171.8,0,311-139.3,311-311.1
	c0-171.9-139.3-311.1-311-311.1C176.5,39.6,37.3,178.8,37.3,350.7"/>
<path d="M50.2,350.7C50.2,186,183.7,52.5,348.4,52.5c164.7,0,298.2,133.5,298.2,298.2c0,164.7-133.5,298.2-298.2,298.2
	C183.7,648.9,50.2,515.4,50.2,350.7 M59.1,350.7C59.1,510.5,188.6,640,348.4,640c159.8,0,289.4-129.5,289.4-289.3
	c0-159.8-129.6-289.4-289.4-289.4C188.6,61.3,59.1,190.9,59.1,350.7"/>
<path d="M361.9,311c2.7-2.8,5.9-5,8.4-7.9c1.7-2,3.1-4,4.4-6.2c0.5-0.9,1-2.2,3.4-2.9c0,3.6-3.3,8.7-5.3,10.5
	C370.8,306.4,364.4,310.2,361.9,311 M434.8,352.2c0.1-2,1.9-3.3,2.1-3.9c-0.4-2.9-5.1-0.1-4.6-5c0.9,0.1,1.6-0.3,4.2-0.3
	c1.1,0,2.4,0.6,3.5,0.9l0.5,2.9c0.3,1.6,4.2,0.2,4.3,3c-1.8,2.9-4.3,2.4-7.3,2.4C436.6,352.1,435.7,352.3,434.8,352.2 M405.1,380.6
	v-2.9c-1.2-0.9-2.5-1.6-4-1.6c-3.2,0-6.2,1.8-9.3,1.6c5.9-7.3,14.8-5.9,22.3-9.3c0.6-1.3,0.2-3.1,1-4.1l28.9-6.9
	c-1.6,2.9-3.1,4.7-5.9,6.6c-1.5-0.7-3.6-1-4.9-1.7L405.1,380.6z M371,353.7c-1.3,0-3-0.2-4.5-0.2c-1.1,0-2.2-0.6-2.1-1.9l48.1-20
	c0-1.2-1.2-2-1.2-3.1l3.2-0.8c4.9,0,8.7,2.6,13.3,3.6l0.8,2.8l-26.6,8.4C390.6,345.9,385.4,350.1,371,353.7 M401,361.6v-2
	c6-3.9,14-7.2,21.3-6.9l1.7-2.5c1.3,0.2,2.7-0.4,4-0.4c1.8,0,4,0.8,4.8,2.5c-0.7,1.3-1.5,1.1-4,1.8c-5,7.5-14.4,5.8-22.1,6.7
	C404.9,360.9,402.6,361.8,401,361.6 M367.4,244.5c-2.8-1.4-4.6-0.3-7.3-1.1c-0.5-0.6-0.6-2-0.6-2.8c0-2.1,1.4-3.9,3.1-4.9l2.7,0.3
	l5.9,7.9L367.4,244.5z M251.6,436.7h-1.3c-2.5,0.5-4.2,4.5-7.2,4.9c-0.5-1.2-0.7-1.7-0.1-4.1c0-0.6-0.6-1.7,1-2.8
	c0.9,0,6.5-5,6.4-5.1c2-0.3,4.2,1.6,4.4,2.6C254.8,434.5,252.6,436.2,251.6,436.7 M222.7,455.9c0.8-1.3,3.2-5.4,4.8-5.4
	c0.2,0,5.5-6.4,7.3-6.7c0.4,0.3,0.8,0.7,2.9,0.3c0.3,0.4,0.9,0.5,0.5,2.9c-0.6,1.5-3.1,4.5-4.4,5.4c0,0-6.3,5.9-10.9,7.2
	C222.7,458.8,222,458,222.7,455.9 M210.3,439l-0.5-1.9c0-3,3.1-4.2,6.2-6.9c0,0,4.9-3.1,4.9-3.3c0.2-0.8,1.8-4.6,2.6-4.6
	c1.8,0,2.3,1.5,3.4,2.7c0.5,1.3-6.4,10.4-9.8,10.9C216.8,435.6,212.4,439.8,210.3,439 M243.3,413.4v1.2c-0.9,1.4-1.9,2.9-3,3.7
	c-1.6,1.3-6.7,3.5-8.8,3.3c-0.4-0.4-0.6-1.3,0.4-3.1l0.5-3.1c2.5-1,5.3-1.5,8.4-4.4C241.5,411,242.1,413.6,243.3,413.4 M221.5,403.2
	c0-1.7-1-1.9,0.1-4.9c0.8-0.4,1.5-1.1,2.7-2.5c-0.2-1.6,4.2-4,5.6-4.1c1.8,0,2,1.8,3,2.6c-0.3,0.6-0.6,1.3-2.1,2.7
	c-1.4,1.2-3.4,2.2-4.8,3.3C225.1,401.2,224.3,402.2,221.5,403.2 M198.8,418.2l1.6-1.7c1.5-1.3,4.1-1.3,5-2.4l3.2-5.5
	c0.8-1.6,2.1-3.3,4.2-3.3c1.7,0,2.1,0.2,3.3,1.4c0.1,0.2,0.7,0.9,0.4,2.7c-0.7,1-2.6,2.1-3.6,2.8c-2.1,1.3-3.9,3.2-6.1,4.8
	c-1.7,1.3-3.1,2.9-5.6,4.6C200.2,421.7,200.3,421.1,198.8,418.2 M221.2,375.6v1.2c-0.7,0.7-2.5,2.6-4.4,3.2
	c-0.6,0.4-0.9,1.3-2.9,2.6c-0.8,0.3-2.7,2.1-3.2,2.1l-1.8-2.9l0.8-2.6c0-2.5,5.1-1.8,6.3-4.4c0.3-2.1,1.6-1.8,4.2-1.3L221.2,375.6z
	 M188.1,403.7c-1.7,0-1.2-1.8-1.3-4.8l1.3-2.3c0.4-2.9,5.4-2.1,6.7-4.1c0,0,2.9-5.7,5.2-6.3c1.2,0.1,2.6,1.5,4,3.9l-2.4,1.2
	c-0.4,0.2-1.5,2.9-3.7,4.3c-0.9-0.2-5.6,2.7-7.3,5.5C189.9,401.6,189.3,402.6,188.1,403.7 M208.2,352.5c0.4,0.5,1.2,1.4,2.1,3
	c-1,2.9-3.3,3-5,4.6c0,0-3.1,3.4-4.4,3.4c-1,1.4-3.6,3.5-5.6,4.9c-1.3,0.4-1.6,0.1-2.4-0.8c-0.1-0.8-0.3-1.4,0.2-2.9l-0.2-2.1
	c0.8-1.6,3.9-2.2,5.5-2.2l3-2.2C201.3,358.2,206.5,353.7,208.2,352.5 M175.2,384.9c-1.2,0-2-2.2-2.1-3.2c0.4-1,1.3-1.7,2.4-3.7
	c0-0.4,1.6-2.3,1.7-2.2c2-0.7,2.9-0.4,4.7-2c0.3,0.1,0.4-1.5,0.4-2.3c0-2.5,5.4-2.2,8.2-1.3l-0.5,2.5c-0.6,1.4-2.3,0.9-3.2,2.9
	c0,1-4.8,4-6.5,5.3C178.8,382.2,177.2,383.1,175.2,384.9 M242.4,331c0.6,0.3,0.5,4.1,0.4,4.1c-0.8,0.5-2.4,2.4-4.1,2.7
	c-0.4,0-2.9,1.3-2.7,2.2c-0.8,1-3.8,5-4.9,4.7l-2.9,2c-1.2,0.6-4,1.9-4.5,3.1c-2.6-0.8-2.2-2.4-1.3-5.1c1.1-1,4.2-4.5,7.2-5.1
	c0.8-0.6,1.5-1.1,2.1-2c0.9-1.3,2.1-4.9,3.6-5.4c0.2,0.7,3.8-2.5,4.4-2.5C240.4,329.7,242.5,330.8,242.4,331 M227.5,359
	c-0.2-0.2-0.9-2.4,0.3-3.7c0.5-0.2,1.7-1.6,2.8-2.9c0,0,2.8,2.2,1.3,4.9C231.4,358,229.3,359.5,227.5,359 M192.3,384.8v1.2
	c-0.6,0.8-2.8,2.8-3.3,2.9c-1.5,0.7-1.8,1.9-2.5,2.6c-1.3,0.7-2.3,1.7-2.5,1.8c-0.2-0.2-1.4,0.4-2.6,1.1l-1.3-3.2
	c1.5-0.9,2.5-1.3,2.5-2.3c1.3-4.8,4-3.2,6.4-5.2C188.8,383.2,190.7,382.6,192.3,384.8 M196.1,383.7c-0.3,0-0.9-2.5-1-2.8
	c-0.8-0.5-0.9-0.8,0.1-2.6c0.2-0.1,3.6-2.5,4.2-2.5c1.1,0,2.7-2.4,4-3.2c0-0.4,3.2-0.8,2.6-2.2c0.2-0.7,2.6-3.8,3-3.7
	c1-1.2,2.5-2.3,3-2.8c1-0.2,1.1-0.4,2.8-0.1c0.2,0.5,0.6,0.9,1.3,2.7c-0.9,1.2-1.8,1.7-2.3,2.8c-0.5,0.1-8.1,7.9-8.1,8.2
	c0,1.4-2.6,1.9-3.9,2.2c-0.4,0.1-1.8,1.9-2.2,1.9C197.9,381.7,197.5,383.7,196.1,383.7 M204.1,400.9l0.4,1.2c-0.7,1-1.4,2.2-2.2,3.1
	c-2.6,2.9-8.5,7-10.8,6.7c-0.4-0.5-0.6-2.3-0.6-2.3c1-0.9,5.6-6.2,9.4-8.3C200.8,400.8,202.1,400,204.1,400.9 M207.8,400.2l-1.3,0.6
	c-0.4,0-1.6-2.8-1.8-2.9c-0.3-0.6-0.3-0.6,0.8-2.5c0.4-0.3,2.9-2.6,2.9-2.6c0.8-0.4,1.7-0.6,3.6-2.2c0.9-0.7,2-1.2,2.9-1.9
	c0.4-0.8,3.7-5,4.3-4.8c1-1,2.1-1.8,3.1-2.8c0.2,0.2,1.3-0.5,3.3,0.5l1,2.6c-1,0.4-2.1,3.5-3.8,3.9c-0.4-0.1-3.6,1.1-4.3,2.3
	c-4.9,1.3-3.5,8.4-7.7,8.4C210.1,398.9,207.9,399.5,207.8,400.2 M225.6,407.5l0.9-1.2c1.4-1.3,2.5-1.8,3.3-2.5c1-1,3.6-3.1,4.2-4
	c1.7,0,3.4,0.3,3.4,2.1c-0.6,2-3.4,4.3-5,5.5c-2.7,1.6-2.9,4.2-4.2,4.7C227.4,411.8,226.4,409.4,225.6,407.5 M223.7,413.6
	c0.8,0.9,0.9,1.2,0.1,3.5c-2,1.2-6.4,4.7-6.7,5.3c-3.7,0.7-4.9,6.1-7.1,6.6l-3,1.5c-0.9-0.3-2-0.8-2.4-0.3c-1.7,0.2-1.6-1.8-0.4-3.1
	c0.3-2.3,4-3.6,5.5-4.7c1.9-0.5,3.1-1.9,4.2-4.3C215.5,415.6,220.3,413.4,223.7,413.6 M229,438.1c-0.4-0.8-0.9-1.5-1.1-2.5
	c-0.5-1.5,3.1-5,3.1-5c2.5-0.8,4.2-2.5,6.5-3.9c0.4-0.3,4-4.6,4.4-4.5c0.6-0.9,3.9-2,5.1-2c1,0,2.3,0.4,2.5,1.6
	c0,1.5-1.9,3.5-3.1,4.2c-0.4-0.3-7.8,6.2-7.8,6.6c-1.1,1.5-2,2.7-3.8,3.5L229,438.1z M226.8,439c0.9,0.9,1.6,1.8,1.4,2.5
	c-0.7,1.1-4.7,2.7-4.7,2.7c-0.8,0.8-6.2,5.2-6.3,5.3l-3.1-0.4c-0.5-0.9-0.9-1.9-0.9-2.6c0-1.5,1.7-3.8,2.9-4.5l3.6-1
	c0.4-0.9,3.7-2.4,4.4-2.4L226.8,439z M164.2,335.6c7.8-94.7,87.1-169,183.8-169c101.9,0,184.5,82.5,184.5,184.4
	c0,31.1-3.3,53.1-17.1,79.1c-0.8,5.8-1.3,21.3-1.3,27.4c0,0-0.6,10.8-8.4,30.4c-2.7,6.8-6.7,12-12.7,18.5
	c-10.7,11.5-19.9,14.9-36.8,21.4c-1,0.4-9.8,2.2-9.8,1.6c-0.8-0.7-4.4,0.2-4.4,0.2c-6.1,1.4-6.5,3.6-13.3,5
	c-6.2,1.3-13.6,0.6-20.8,2.4c-13.8,3.5-20.1,6.2-31.7,10.6c-5.3,2-12.8,6-17.7,8.2c-6.5,2.8-10.4,4.6-15.5,7.9
	c-3.1,2-10.5,5.3-16.8,5.3c-5,0-9.6-10.4-12.5-11.9c-12.9-6.8-23.9-30.4-25-34c-28.4-8.9-32.9-17.4-57.3-33.7
	c-0.3,0.4-1.9,1.8-2.9,2.7c-3.2,1.8-9.1,5.1-9.1,5.1l-40.9-53.9l-26.1-38.7l-24.5-39.8l18-13.7C151.8,345.6,159.1,340.5,164.2,335.6
	 M164,400.1l1.9-2.4c-4.4-4.8-11.5-9.5-16.7-14.3C153.7,389.3,159,394.7,164,400.1 M148.8,373.4c0,0,7.4,5.8,17.1,14.1
	c3.7,3.4,9.6,11.2,12.3,15.5c17.7,28.3,30.9,53.4,50.5,80.4h2.3c9.8-5.8,14.4-17,24.2-23c-1.2-3.5-1.8-7.5-1.8-11.1
	c0-11.5,5.2-17.7,15.6-22.2c-1.2-1.4-3.9-1.9-4.5-2.7c-1.8-2.1-0.4-6.8-3.9-7.2c-0.7-1.3-1.1-2.8-1.1-4.3c0-4.5,7.6-9.9,7.6-14.6
	c0-1.1-0.7-6-2.5-6c-9.5,0-13.7-21.8-13.7-28.6c0-2.3,0.5-4.8,1.7-6.8c-1.2-0.7-1.5-7.4-3-7.4c-2.3,0-3,2.4-4.5,2.9
	c-4.1,1.3-7.9,1.9-11.8,3.7c1.8-2.7,13.4-12.2,16.5-13.7l-1.4-17.6c-6.4-6.4-9.4-20.9-18.9-23.5c-0.8,21-5.8,22.8-25.9,30.6
	c12.7,17.8,22.5,37.1,34,55.5c8.2,13.1,18.2,24.8,24.1,39.3l-7.4-3c-8.1-23.1-39-68.8-54.5-89C199.4,350.8,148.8,373.4,148.8,373.4
	 M169.9,405.4l1.9,3.7c1.4,1.7,2.7,3.5,3.8,5.3c14.7,21.7,27.1,46.1,44.5,65.8C202,453.4,186.4,419.4,169.9,405.4 M142,383.4
	c12.4,20.1,60.5,90,77.1,106.9l4,0c-6.3-4.3-11.2-10.2-15.8-16.3c-12.4-16.2-20.5-30.9-22.4-34C181.8,435.2,143.9,385.8,142,383.4
	 M226.8,494.1c18.2,17.1,45.3,31.3,69.7,38c-0.9-1.8-1.6-2.8-2.4-4.4c-1.3-0.5-10.8-3.3-11.8-4.1c0,0-4.7-8-7.4-14.1
	c-14-6.8-27-15.2-38.4-25.2l-7.4,8c0-0.1-0.9,0.7-1.6,1.3L226.8,494.1 M322.3,543.1c2.7,13,11.5,22.8,13.9,1.4
	c1.7-4.3,2.8-8.5,6.2-12.5c-1.9-2.3-5.7-1-6.2-2.7c2.4-5.5-0.9-9.6,0.3-16.6c3,0,11.1,15.1,11.1,17.3c0,2.5-0.6,4.7-1.8,6.9
	c3.5,2.4-1.6,3.9-1.4,6.3c4.4,0,7.4-11.5,10.3-13.7c7.4-5.4,21.1-4,29.6-8c-0.9-0.8,0.4-1.6,0-3.2l-4.5,0.9c0,2.2-1.8,4-6.1,4
	c-2.2,0-3.1-1.6-5-1.6c-2,0-5,2.2-9.6,0.5c0.5-1,1.5-1.6,3.9-3.4c-3.2,0-6.8,1.1-9.4,1.1c-3.4,0-1.2-4.5-5.7-4.5
	c-8.8,0-7.2-5-13.8-7.4l-1-2.8c-0.3-0.8,2.3-1.5,2.1-2.7c-0.9,0-2.1,1.5-3,1.5c-2.7,0-2.6-3.7-2.6-5c0-9.5-1.5-17.7-2.1-27.4
	c0.7,0,1.3-0.4,2.1-0.4c8.3,0-1.3,20.8,11.3,27.9c0.1,6.8,9.9,11,15.2,16c5.2-0.3,7.7-3.4,10.6-5.9c5.4-1.6,13.5-3.3,19.4-3.3
	c3,0,5.8,0.2,8.6,0.7c-5.3,5.2-15.7,2-23.1,6.6c11.4-2.4,26.4-5.2,38.1-5.2c8,0,17,0.6,26-3.4c-3.9-4.7-16.7-7.9-23.8-9.6
	c1.3-0.3,2.6-0.6,4-0.6c15.8,0,31.6,4.3,47.4,4.7c0.6,0,4.4-2.1,4.4-2.7c0-7.9,12.7-21.3,20.7-29l2.4,1c2.3-1.3,8.4-5.6,8.4-7.8
	c0-1.1-4.7-0.4-5.1-1c-0.4-1.1-0.7-2.3-0.7-3.5c0-9.8,9.3-16.9,9.3-25.7c0-1.5-0.4-2.8-1-4.2c-10.1-4.8-6.9-16.2-14.4-22.5l-2.7,0.3
	c-1.7,3.8-2.4,7.9-2.4,11.9c0,12.9,4.7,29.4-12.1,38.1c-10.6,5.4-10,6.2-21.8,6.2c-18.5,0-37.5-5-53.2-11.6l0.7-2.3
	c1.2,0.4,2.9-0.3,4.2,0.1c1.9,0.7,1.3,1.6,4.4,1.6c1.2,0,2.6,0,3.6-0.2c2.6,0.9,17.6,6.5,19.5,5.8c0.8,0.7,3.8,2.7,5,2.7
	c3.5,0,12.3-1.2,16.4-1.6l3.8,2.3c17.6,0,11.6-29.4,21.2-29.4c0.9,0,2.8,1.4,3.5,0.5c-1.1-2.1-1.5-4.4-1.5-6.7c0-4.6,1.4-9,1.4-13.5
	c0-2.2-0.3-4.2-0.9-6.3c-4.1-1.9-8.9-4.2-14-4.2c-1.5,0-3,0.1-4.4,0.4c-15.5,11.3-26,25.6-48.6,30.5c1.5,1.3,28.7,3.1,32.7,3.4
	c0.3,2.3,3.8,3.3,6.6,3.3c4.5,0,9.4,6.8,9.4,9.8c0,1.3-1.5,2.4-3.6,2.4c-9.6,0-2.3-8.7-22.4-8.7c-6,0-11.8,0.5-17.8,1.2
	c-0.5,1.2-2.4,0.8-2.1,1.7c-5.3-1.1-11.6-4.8-17.1-4.8c-2.1,0-3.9,0.1-5.7,0.8c0.3,1.7,2,3.1,2,6.1c-10.9-2.3-20.9-8.7-32.7-8.7
	l-3.1,0.7c0,3.4,12.2,6.8,15,8v2.2c-1.2,0.5-2.3,0.9-5,0.9c-3-1.2-27.8-10.8-29.3-10.8c-1.5,0-3.3,0.1-4.9,2.4
	c0.7,0.9,2.5,0.5,3.7,0.8c10.9,2.1,13,9.3,18.6,15.3c4.5,4.7,11.4,7.5,17.6,11.2c4.5,12.1,19.9,17.6,31.9,25.6c-1,2.3,0.8,5-4.3,5.3
	c-5.8-1.7-26.2-8.6-26.2-13.9c0-1.2,1.8-2,3.3-2.3c-0.7-0.4-8.6-8.4-8.6-9.2c0-1.4-0.8-1.8-3-2.9c1.1,3.7-1,5.5-1,8.6
	c0,0.9,0,1.9-0.3,3.8c-9.7,0.8-5.4-5.6-8.1-7.6c-7.5-5.3-20.1-30.7-29-30.3c0,0.2,2.4,1.7,2.7,2.2c2.7,3.1,7.6,7.4,7.6,11.2
	c0,0.8-0.2,1.6-0.5,2.3c1.2,3.2,4.2,5.6,8.2,7.2l-1.6,2.1c-15,0-9.3-18.9-26.5-23.6c3.3,15.6-3,31.2-3,46.8
	C313.3,510.5,316.8,525.7,322.3,543.1 M351.6,544.9c2.4-0.1,4.9-0.2,7.3-0.3c3.2-2.6,5.1-6,9.1-9.2l-3.6,0.3
	C361.4,539,355,541.5,351.6,544.9 M511.3,418.9c9.2-21.4,16.1-44.3,16.1-69.3c0-98.8-81.1-177.7-179-177.7
	c-90.8,0-165.5,68.3-175.9,156.2c4-3.7,7.8-7.2,11.3-10.5c13.9-77.9,82.8-137.1,165.6-137.1c92.8,0,168.1,74.4,168.1,166.1
	c0,11-1,21.8-3.1,32.2l8.7,14.9C521.9,413.1,516.6,420.1,511.3,418.9 M135.8,373.4l3.1,0.3c3.2-2.2,33.1-24.1,34-24.8
	c2.7-1.9,6.4-4,6.8-6.5L135.8,373.4z M516.5,394.7l1.3-0.5c-4.4-11.6-16.7-19.8-19.1-31.9c-5.9-1.5-11.7-6.8-11.7-13
	c0-1.6-0.1-3,2-3c8,0,21.8,26.3,22.8,27.9c-0.5-7.6-3.6-14.8-3.6-22.5c0-3.7,2.3-7.9,5-10.4c-3.6-8.3-4.2-1-4.2-17.1
	c-8.6-9.9-8.7-18-22-24.9c-1.4-0.7-0.9-3.7-2-4.5l-23.1-4c1.3-4.7,20.2-4.7,21.6-4.9l-8.9-8.8c-4.6,4.8-7.3,9.4-14.2,11.3
	c-0.2,1-1.9,3.2-1.7,4.2c-11.2,2-22.5,3.9-33.1,8.3c-21.2,9-43.7,28.5-68.2,28.5c-1.6,0-4.4-0.3-3.2-4.2
	c32.2-2.5,96.7-46.7,102.7-46.7c2.8,0,4.6,2.3,8.1,4l-2.1-2.4c-1.7-8.5,9.8-6.8,9.7-14.2l-12.7-9.8l-4.7-12.7
	c-1.4-0.4-2.9-0.9-4.5-0.9c-1.7,0-3.8,0.6-6.5,2.2c0.4,1.8,4,2.6,4,4.6c0,10-12.5,36.1-22.4,41.6L398.7,306
	c-9.3,5.1-33.9,16.1-43.9,16.1c-0.9,0-4.8,0.3-4.8-1.5c0-1.2,1-1.7,1.7-2.5c23-4,43-15,62.6-28.2c0-4.5-3.5-12.2-8.6-12.2
	c-5,0-8.7,0.6-8.7-6.2c0-1.6,0.1-2.9,2.1-2.9c1.6,0,6.6,2.9,6.6-2.6c0-3.7,2.6-6.1,1.3-8.8l-2.8,0c-2.7-0.3-5.5-1.1-8.6,0.2
	l-0.7,4.2c-0.5,2.8-2.6,2.2-2.6,5.6c0,2.3,1.4,4.7,1.3,8.3l-3.9,1.7c-2.3,5.4-3.1,12.5-10.2,13.6l-1.4-2.3c0-2.5,4.9-2.8,4-6.3
	c-1.4,0-5.6,1.4-6.5,0.6c-2.9-2.4-2.1-13-4.5-14c-9.1,0.2-6-5.4-11.6-3.8c-3.4-0.6-1.9-6.6-6.8-6.6c-12,0-12.5-8.8-23.6-8.8
	c-2.7,0-5.6,0.1-8.2,1.1c-0.4,1.2-0.5,2.4-0.5,3.7c0,4.4,2.4,9,2.4,12.1c0,1.4-1.4,2.8,1.1,2.8c4,0,14.7-1.3,14.7,5.6
	c0,2.3-3.6,3.7-4.7,5.1c-0.8,1-0.6,6-2.2,6c-2.4,0-4-7.5-7.8-9.8l0.7,19.2c2.4,0,2.6-3.5,8.8-4.6c0-0.5-0.4-4.3,0.4-4.3
	c0.2,0,4.2,7.2,2.7,9.5c-2.2,0-5-3.1-5,1.7c0,1.6,1.7,2.1,3.1,2.1c1.1,0,7.8-1.8,7.8,0.4c0,4.5-5.3,1-5.3,4c0,4.4,4.2,0.9,4.2,5.7
	c0,3.9-1.1,8.6,7.1,8.2c0,4.2-3.8,4.2-7.4,5.8v2.4l3.1,0.7c-1.1,2.4-0.3,5.9,3.2,5.9c32.1,0,64.6-12.4,91.3-29.7
	c4.3,1,8-0.9,12.1-0.9c2.7,0,5.5,0.5,7.4,2.6l1,3.2l-2.4,1.9c2.3,1.9,5.3,2.8,8.3,2.8c7.7,0,14.8-5.6,22.5-5.6
	c12.5,0,14.6,19.7,17.2,28.2c0.8,2.4,5.3,6.2,5.3,7.3c0,1.2-4.9,3.2-6,3.2c-6.2,0-6.4-13.2-8.3-14.3h-3.9
	c-3.9-3.1-15.2-4.1-15.7-9.8c-11.7-3.9-23-5.2-35.3-5.2c-29.8,0-29.1,14.7-40.4,14.7c-1.9,0-8.7-0.8-9.8,0.7
	c-1.1,1.6,0.3,4.3-1.3,5.5c-5.5-1.3-12.1-1.6-16.7,2.5h-24.5c1.3,11.9,7,7.7,13.6,13.7c-1.3,1.8-7.4,5.3-9.3,5.3
	c-10.3,0-7.7-19.1-19.8-19l10.4,24.3l-2.6,0.1c-3,0-8.4-8-10.6-10.4h-2.1l7,17.6l17.3,11.6c0,6.8,11.9,6.2,17.3,6.2
	c15,0,29.3-7.3,44.5-7.3c4.1,0,7.7,2,11.7,2c10,0,18.7-7.1,28.4-7.1c3.6,0,6.2-1.6,9.6-1.6c9.7,0,17.3,9.7,27.6,9.7
	c1,0,2.3-0.4,3.3-0.7c3.4,2,3.3,7.3,5.3,7.3C508.7,391.7,506.6,388.3,516.5,394.7 M372.7,255.3h1.8c0-2.8,1.9-3.2,1.9-5.4
	c0-1.9-1.5-3.8,1.1-6.5c4.4,3.7,1.6,4.2,3.5,7.9l2.3-1.1c-1.7,0,0.5-3.8,0.7-4c4.4,0.8,8,6.8,12.9,6.8c4.9,0,6.5-1,11.6,1.4
	c0.2-1.4,0.4-2.8,0.4-4.2c0-4.6-2-9.1-3.3-13.5c-1.3-4.1-1.7-8.1-3.8-12.1c-5.9-10.8-22.7-16-34.3-16c-15.1,0-33.4,7.5-41.4,20.5
	c4.8,0,13-2.5,18.6-3c3,1.3,4.2,5.7,8.4,5.4c-0.1-0.7,1.1-2.6,1.5-3.3l2.8,0.4c-0.5,7.4-0.3,14.6-1.5,22c1.2,0.3,3.3-2,4.8-2
	c3.3,0,2.8,3.8,4.4,5.1c0.9,0.9,2.4,0.2,3.6,0.4C369.9,254.6,370.2,256.4,372.7,255.3 M300.5,440.6l2.1-1.4c-2-2.2-6.3-6.8-6.3-9.9
	c0-8.6-0.4-17.4-1.1-26.2c0-1.3,2.2-2.4,2.7-3.4c0.2-0.4,1.2-10.8,1.2-11.8c0-6.1-0.3-9.5-4.9-14.6c-0.8,2.4-0.2,11.1-3.6,11.1
	c-1.2,0-8.6-6.5-8.6-6.8c0-10.6,4-21.6,4-32.2c0-4.2-5.1-7-8.1-8.8c-0.7,0.9-1.1,3.5-1.1,4.6c0,7.4,4.6,4.2,4.6,6.4
	c0,1.4-3.3,1-4.2,1.2c-1.2,0.2-1,2.9-3.2,2.9c-0.3,0-2.5-1-2.5-0.2c0,1.2,1.7,2.3,1.6,5c-2.9,0-10.4-9.9-13.7-10.8l-6.4-1.7
	c-1.5-0.4-2.3,1.9-1.9,3.8c5,3.7,8.2,6.4,11.1,12c0.8,1.6,1,9.7,2.9,13.8c3.9,8.2,6,4.9,9.3,9.3c2.5,3.2,1.6,7.6,2.8,11l7.3,6.1
	l5.3-11.8l3.1,0.5l0.8,3.9c-3.8,8.7-8.5,18.1-8.5,27.9C285.1,433.1,290.4,436.1,300.5,440.6 M508.6,442.4c1.6-2.3,3-6.1,3-6.1
	c0.2-1.1,0.2-4.2,0.2-5.3v-5c0-3.6-0.9-7.1-2.3-10.4L508.6,442.4z M337.3,431.4l3.4-20.2l-2.4,1.1l-4.9,17.9
	C333.5,430.3,336.6,431.3,337.3,431.4 M392.9,424.4c3.6-0.8,7.5-1.7,10.5-3.5c5.7-3.4,9-16,15.6-16l2.5,1l-3.3,8.7
	c9.4-1.8,15.9-15.3,21.9-21.9c-4.1-0.2-8.9-0.3-13,0c-2.3,1.9-4.8,3.3-8.4,7.3c-5.3,4.6-12,7.6-15.2,14.3
	C399.7,415.2,392.8,418.9,392.9,424.4 M326,423l1-0.2l2.8-10.9l-2.1-2.1c-1.5,1.5-2.5,4.3-2.5,6.4v2.5
	C325.3,420.1,325.6,421.7,326,423 M315.3,414.6c2.3,0,2.3-4,2.6-4.9c-1.5-1.6-2.5-3.9-2.5-6c0-4.4,2.6-8.6,2.6-12.5
	c0-1.7-0.1-3.5-2.8-4.3V414.6z M360.1,413.6h1.4c1.6-2.5,2.5-4.7,2.6-7.7c0.1-1.3-0.1-2.6,0.2-3.9c-0.8,0.7-1.7,1.6-2.1,2.5
	C361.3,406.1,360.1,410,360.1,413.6 M348.4,413.3h1.4l7-17.4l-7.7,7.6c-0.7,0.7-1.6,2.9-1.6,3.9v2.6
	C347.4,411,347.7,412.5,348.4,413.3 M266.4,411.8c0.9-1.2,2.2-1.9,2.1-3.8l-2.1,1.7V411.8z M375.2,407c0.6-0.1,1.1-1,3.7-2.6
	c0.3-0.7,0.5-2.2,0.5-2.9c0-1.4-0.2-2.8-0.5-4.2L375.2,407z M330.3,405.9c3.1-2.6,4.7-3.2,5.5-7.6c-0.2,0-1.7-1-3.1-1.6l4.9-14.7
	l-3.2,1.6L330.3,405.9z M509.5,406.3c1-3-2.4-6.3-3.5-7.8c-0.1,0.1-0.4,0.9-0.4,2.9c0,0.4,0.4,1.6,1.4,3.5
	C508,405.3,508.6,405.9,509.5,406.3 M409.9,398.7c3.3-2.5,9.2-5.5,7.2-9.7c-0.2,0.3-2.1,1.2-2.3,1.4c-0.8,0.9-1.4,2.2-2.1,3.3
	C411.9,394.8,410.8,395.8,409.9,398.7 M305.4,394.7l1.5-0.5c0.3-1.1,0.8-2.2,1-3.4c0.5-3.1,0-7.1,2-9.7c-2.2-3.4-2.1-1.6-3-2.4
	c-0.6,1.2-1.1,2.6-1.1,3.9c0,1.9,0.4,3.7,0.4,5.5v2.8C306.2,392.2,305.9,393.7,305.4,394.7 M322,376.3l2.9-2.4
	c-0.2-0.7,0-1.4-1.4-2.5c-0.7,0.3-1.4,0-2.1,0.1c-0.6,0.1-1.8,0.6-1.5,2.4L322,376.3z M203.5,324.9c4.8-0.2,18.1-8.3,20.3-14.7
	C217.1,315.2,209.9,319.4,203.5,324.9 M264,330c-0.9,0-3,0.2-5.7,2.5c-2.6,1.9-4,2.1-5.7,4.9c-0.4,0.6-0.9,1.4,0,2.8
	c1.4,0,1.9-1.6,4.2-3.7c2.7,0,4-3.5,5.4-4.2c1.3-0.8,2.3-0.4,3.6-0.9c0.5,0.3,3.5-0.1,3.7-0.6C268.6,330.3,264.9,330,264,330
	 M274.4,329.3c5-1.8,8.8-3.3,14.2-3.3c2.9,0,6.4,1.1,9.1,0.1c8.3-2.9,20.5-8.3,37.9-9.2c-1.6-1.2-15.8-2.4-17.8-2.4
	C302,314.6,287.2,319.8,274.4,329.3 M210.8,312.5l11.8-7.9c1.1-0.5,1.5-0.4,1.4-2.7c-0.4,0.1-1,0.3-2.4,1.4L210.8,312.5z
	 M417.6,282.3l1.9-1.2c0-0.9-0.9-1.9-1-4.7c-0.2,0.1-1.4,1.4-2.1,2.6C416.4,279.3,416.8,281,417.6,282.3 M379.8,256.2
	c-0.6,0.5-1.7,2.5-1.7,3.3c0,0.8,3.3,1.9,3.3,5.5c0,3.5-1.7,6.7-1.3,11.4c2.3,0.5,3.7-8.5,3.7-9.7v-2.5
	C383.9,262.1,382.8,257.1,379.8,256.2 M424,274.9l10.3-5.6l-2.6,0.3C428.9,270.4,427.6,272.1,424,274.9 M418.1,269.3l11.7-9.9
	c-4.1,0.4-5.6,1.3-8.5,4.2c-1,1-2.2,1.9-3.2,2.9V269.3z M435.1,263.5l3.1-0.6l1.5-2.8c0-0.4-1.1-3-1.5-3.5l-3.4,0.4
	c0.2,0.2,1.6,0.2,3.4,2.1c-0.4,0.7-0.9,1.5-1.5,2.2C436.4,261.8,435.7,262.3,435.1,263.5 M347.3,250.7l1.1-1.1c1.6-2.3,2.1-5.6,2-8
	l-3.3,0.8c-0.8,0.9-1.3,2.2-1.3,3.4C345.7,246.8,346.7,250.2,347.3,250.7 M337.3,238.4l1-0.4c0.8-0.5,1.9-1.2,2.3-2.1l0.1-2.4
	l-2.4,1.6L337.3,238.4z M315.3,441.6l2.3-0.4c-0.7-4.2-2.2-7.8-4.7-11.3c-1.1-1.5-2.5-2.7-3.6-4.1c-0.7,3.3,0.8,6.1-1.5,9.1
	L315.3,441.6z M281.8,514.8l-1.2-24.2c-1.2-0.1-2.4-1.6-2.4-3.6c0.9-1.2,2.8-2.1,4.5-2.1c3.3,0,6.3,1.5,10.9,1.3l-0.4-3
	c-3.5,0.1-7.1-0.7-10.6-0.7h-3.3c-2.2,0-5.3,0.3-5.3,3C273.9,496.5,278.8,504.2,281.8,514.8 M488.9,497c7.8-6.3,15.2-11,18.2-20.7
	l-16.3,16.9C490.3,493.6,490.4,495,488.9,497 M299.3,485.1l1.7-0.3l2.8,0.1c0.3,0,1-0.4-0.1-2.2l-2.2-0.1l-2.3,0.4V485.1z
	 M271.5,469.1c0,2.9,17.2,6.6,21.1,6.6c4.1,0,7.8-1.4,11.8-1.4c0.7,0,1.5,0,2.2,0.3c1.1-1.9,2.8-6.3,2.8-8.4v-3.7
	c0-5-4.3-9.9-6.7-14.2l-4.5-2.5c-5.1,0-10,2-15,2c-7.6,0-15.2-4-22-4c-0.7,0-1.2,0.1-2.3,1.6c0,4.9,22.6,9.4,22.6,11.3
	c0,1.1-2.3,2.7-3.3,2.7c-2.7,0-11-3-13.7-2.7c0,0.9,1.9,3,2.6,3.4c4.5,2.9,7.7,3.8,12.9,5.1c0.9,0.3,4.9,3.5,3.2,5.4
	C279.7,470.6,275.8,469.9,271.5,469.1 M277.5,440.6l1.9,1.5l5.3,1.1c0.6,0.1,1.6-1,0.8-3l-3.5-2.1l-2.9-0.2
	C278.2,438,278.2,438.4,277.5,440.6 M473.6,439.7c2.9-0.7,3.9-3.2,3.9-6.1c0-1-0.5-2-0.4-3L473.6,439.7z M307.4,532.7
	c1.1-1,1.5-2.2,1.6-2.7c0.1-0.7-0.2-1.5,0.1-2.3c-0.9-0.3-1.4-0.9-3.3-0.1C306.2,529.1,306.2,531.6,307.4,532.7"/>
<path d="M140.7,508.2l0.3,1l-11.7,2.8l-17-28.2l1-0.6l0.8,1.4c0.9,1.5,2.1,2.3,3.5,2.4c0.8,0,2.2-0.6,4.3-1.8l23.5-14.1
	c2.3-1.4,3.6-2.4,3.8-3.3c0.4-1.2,0.2-2.4-0.7-3.8l-0.8-1.3l1-0.6l9.9,16.5l-1,0.6c-1.1-2-2.1-3.2-3-3.8c-0.8-0.5-1.7-0.7-2.4-0.7
	c-0.7,0.1-2.2,0.7-4.4,2L125,490.3c-1.5,0.9-2.4,1.7-2.8,2.3c-0.2,0.5-0.3,1-0.2,1.5c0,0.5,0.8,2,2.2,4.3l1.6,2.7
	c1.7,2.8,3,4.6,4.1,5.5c1.1,0.9,2.4,1.5,4,1.8C135.6,508.7,137.9,508.6,140.7,508.2"/>
<path d="M184.8,514.6l0.9-0.8l10.1,11.2l-0.9,0.8l-1.1-1.2c-1.1-1.2-2.5-1.7-4.2-1.4c-0.8,0.1-2,0.9-3.8,2.5l-12.8,11.5
	c-3.1,2.9-6,4.8-8.3,5.7c-2.3,0.9-4.9,1.1-7.8,0.3c-2.8-0.7-5.8-2.6-8.6-5.8c-3.1-3.5-4.8-6.6-5.2-9.5c-0.4-2.9,0.1-5.6,1.4-8.1
	c1-1.7,3.3-4.4,7.1-7.8L164,501c1.9-1.8,2.9-3.2,3-4.3c0.2-1.1-0.3-2.2-1.4-3.4l-1.1-1.2l0.8-0.8l12.4,13.6l-0.9,0.8l-1.1-1.2
	c-1.1-1.3-2.4-1.8-3.7-1.7c-0.9,0.1-2.2,1-4,2.5l-13.7,12.4c-1.2,1.1-2.5,2.5-3.9,4.1c-1.4,1.7-2.3,3.2-2.6,4.6
	c-0.4,1.4-0.3,2.8,0,4.5c0.5,1.6,1.4,3.3,2.8,4.8c1.8,2.1,3.9,3.6,6.3,4.4c2.4,0.8,4.5,0.9,6.5,0.3c1.9-0.7,4.6-2.5,8-5.6l12.8-11.5
	c2-1.7,3-3,3.1-4c0.2-1.2-0.4-2.4-1.4-3.6L184.8,514.6z"/>
<path d="M202.2,554.1l-0.9,16.3c-0.2,4.5-0.2,7.6,0.1,9.1c0.4,1.5,1.3,2.9,2.8,4.1l-0.7,1l-14.5-11l0.7-1c0.9,0.8,1.8,1.2,2.4,1.4
	c0.4,0.1,0.9,0.1,1.4,0c0.4-0.2,0.8-0.4,1-0.7c0.3-0.4,0.5-0.8,0.6-1.3c0.1-0.4,0.2-1.5,0.3-3.2l0.8-13.1l-14,3.8
	c-1.4,0.5-2.3,0.8-2.7,1c-0.4,0.2-0.7,0.4-1,0.8c-0.5,0.5-0.5,1.1-0.3,1.8c0.1,0.7,0.9,1.5,2.1,2.6l-0.7,0.9l-12-9l0.7-1
	c0.9,0.5,1.8,1,2.6,1.2c1.4,0.3,2.7,0.5,4.3,0.5c1.4,0,3.4-0.4,5.7-1l15.6-4.1l0.7-14.8c0.2-4,0-6.9-0.7-8.7
	c-0.6-1.8-1.7-3.3-3.3-4.7l0.6-0.9l15.7,11.8l-0.7,0.9c-1.4-1-2.4-1.4-3.3-1.4c-0.7,0-1.4,0.3-1.6,0.7c-0.5,0.6-0.8,1.8-0.8,3.6
	l-0.7,11.7l11.8-3.1c1.4-0.4,2.3-0.7,2.7-0.9c0.4-0.2,0.7-0.4,1-0.8c0.3-0.3,0.4-0.8,0.4-1.2c0-0.5-0.2-1-0.4-1.4
	c-0.2-0.5-0.9-1.1-2.2-2l0.7-0.9l12,9l-0.7,0.9c-1-0.7-1.9-1.1-2.7-1.3c-1.3-0.3-2.5-0.4-3.7-0.3c-1.2,0-3.2,0.4-5.9,1.2
	L202.2,554.1z"/>
<path d="M260.6,569.1l-6,15.7l8.8,3.3c2.2,0.9,3.8,1.1,4.9,0.7c1.4-0.5,2.5-1.8,3.5-4l1.1,0.4l-5.3,13.8l-1.1-0.5
	c0.4-2,0.6-3.4,0.6-4c-0.1-0.8-0.5-1.5-1.1-2.3c-0.7-0.7-1.8-1.3-3.4-2l-8.8-3.4l-5,13.1c-0.6,1.7-1,2.8-1,3.3
	c0,0.4,0.1,0.9,0.5,1.3c0.3,0.4,1,0.7,2.1,1.2l6.7,2.5c2.2,0.9,3.9,1.4,5.1,1.4c1.1,0.1,2.3-0.2,3.6-0.7c1.7-0.8,3.6-2.1,5.8-4
	l1.1,0.4l-7.2,8.7l-30.6-11.7l0.4-1.1l1.4,0.5c0.9,0.4,1.9,0.5,2.9,0.4c0.8-0.1,1.4-0.4,1.9-0.9c0.4-0.5,1.1-1.8,1.8-3.7l9.9-25.8
	c1-2.6,1.3-4.2,1-5c-0.4-1-1.4-1.9-3-2.5l-1.4-0.5l0.4-1.1l30.5,11.8l-2.9,8.9l-1.1-0.5c0.4-2.2,0.5-3.8,0.3-4.8
	c-0.2-1-0.7-1.9-1.6-2.7c-0.7-0.6-2-1.2-3.9-2L260.6,569.1z"/>
<path d="M318.4,582.9l-1.4,9.8l-1.2-0.2c0.1-1.8,0-3.1-0.2-3.9c-0.4-1.3-1.1-2.3-2.1-3.1c-0.9-0.7-2.2-1.4-4-1.7l-5.8-1.2l-6.2,31.9
	c-0.5,2.6-0.6,4.2-0.2,4.9c0.6,1.1,1.8,1.7,3.3,2l1.5,0.3l-0.2,1.2l-17.7-3.5l0.2-1.1l1.5,0.2c1.8,0.3,3.1,0.1,4.1-0.9
	c0.6-0.6,1.1-2,1.5-4.3l6.2-31.9l-5-1c-2-0.3-3.4-0.5-4.2-0.3c-1.1,0.2-2.2,0.7-3.2,1.7c-1,1-1.7,2.4-2.2,4.2l-1.2-0.2l2.3-9.7
	L318.4,582.9z"/>
<path d="M385,581.4l0.1,1.2c-1.4,0.4-2.5,0.9-3.3,1.7c-1,1.1-1.8,2.7-2.5,4.9l-11.6,37.3l-1.1,0.1l-19-35.1c-1-1.8-1.7-2.9-2-3.2
	c-0.6-0.6-1.3-1.1-2.1-1.4c-0.8-0.3-1.8-0.5-3.1-0.4l-0.1-1.2l17.3-1.5l0.1,1.1c-1.9,0.4-3.2,0.9-3.7,1.4c-0.5,0.5-0.8,1.1-0.7,1.9
	c0.1,1,0.7,2.6,1.9,4.7l12.9,23.8l7.9-25.3c0.7-2.5,1.1-4.2,1-5.1c0-0.6-0.4-1.1-1-1.7c-0.7-0.5-1.7-0.8-3.2-0.9c0,0-0.3,0-0.6,0
	l0-1.2L385,581.4z"/>
<path d="M397.4,580.4l4.3,16.2l9-2.4c2.3-0.6,3.8-1.4,4.4-2.3c0.8-1.2,1-3,0.5-5.3l1.1-0.3l3.8,14.3l-1.2,0.3
	c-0.8-1.9-1.4-3.1-1.9-3.6c-0.6-0.6-1.3-1-2.2-1.2c-0.9-0.2-2.3-0.1-4,0.4l-9,2.4l3.7,13.5c0.5,1.8,0.8,2.9,1.1,3.2
	c0.2,0.3,0.6,0.6,1.1,0.7c0.5,0.1,1.3,0,2.4-0.3l7-1.9c2.4-0.6,4-1.2,4.9-1.8c1-0.6,1.8-1.5,2.5-2.8c0.9-1.6,1.7-3.8,2.3-6.7
	l1.2-0.3l-0.8,11.2l-31.6,8.5l-0.4-1.1l1.5-0.4c0.9-0.3,1.8-0.8,2.6-1.5c0.6-0.5,0.9-1.1,0.9-1.8c0.1-0.7-0.2-2.1-0.7-4.1l-7.1-26.7
	c-0.7-2.6-1.3-4.1-2-4.6c-0.9-0.6-2.3-0.7-4-0.2l-1.5,0.4l-0.3-1.2l31.6-8.5l2.9,8.9l-1.2,0.3c-1-2-1.9-3.4-2.6-4
	c-0.7-0.7-1.6-1.1-2.8-1.2c-0.9-0.1-2.3,0.1-4.3,0.7L397.4,580.4z"/>
<path d="M439.9,585.4c0.3-0.1,0.7-0.3,0.9-0.4c0.3-0.1,0.5-0.2,0.7-0.3c3.6-1.8,6-3.9,7.1-6.3c1.1-2.5,1.1-4.9,0-7.4
	c-1.1-2.4-2.8-4-4.9-4.8c-2.2-0.8-4.6-0.6-7.1,0.5c-1.1,0.5-2.5,1.4-4.2,2.6L439.9,585.4z M476.4,592.5l-10.3,4.8l-21.4-11.9
	c-1,0.5-1.7,0.8-2.3,1.2c-0.3,0.1-0.5,0.2-0.8,0.3c-0.3,0.1-0.6,0.2-1,0.4l5.3,11.2c1.1,2.4,2.1,3.8,2.9,4.1
	c1.1,0.5,2.4,0.4,3.8-0.3l1.5-0.7l0.5,1.1l-16.5,7.7l-0.5-1.1l1.5-0.7c1.6-0.8,2.5-1.9,2.7-3.2c0.1-0.8-0.3-2.3-1.4-4.4L428.9,576
	c-1.1-2.4-2.1-3.8-2.9-4.1c-1-0.5-2.4-0.4-3.8,0.3l-1.4,0.7l-0.5-1.1l14-6.5c4.1-1.9,7.2-3,9.5-3.3c2.2-0.4,4.3,0,6.5,1
	c2.1,1,3.7,2.6,4.7,4.7c1.1,2.4,1.3,4.8,0.6,7.2c-0.8,2.5-2.6,4.8-5.4,7.1l13.1,7.3c2.9,1.7,5.3,2.7,7,2.9c1.7,0.2,3.6,0,5.8-0.8
	L476.4,592.5z"/>
<path d="M495.1,578.5l0.7,0.9l-15.3,9.9l-0.6-1l1.3-0.8c1.5-0.9,2.2-2.1,2.3-3.3c0-0.9-0.6-2.4-2-4.5l-14.9-23
	c-1.2-1.8-2.1-2.9-2.7-3.4c-0.4-0.3-1.1-0.4-1.8-0.3c-1.1,0-2,0.3-2.9,0.9l-1.3,0.8l-0.6-1l15.2-9.9l0.6,0.9l-1.2,0.8
	c-1.4,1-2.2,2.1-2.3,3.4c-0.1,0.8,0.5,2.3,2,4.5l14.9,23c1.2,1.8,2.1,2.9,2.7,3.3c0.5,0.3,1.1,0.5,1.8,0.5c1-0.1,1.9-0.4,2.8-1
	L495.1,578.5z"/>
<path d="M503,518.8l6.8,7.3l-1,0.7c-1.3-1.2-2.3-1.9-3.1-2.3c-1.3-0.5-2.5-0.6-3.7-0.4c-1.2,0.3-2.5,1-3.8,2.1l-4.6,3.9l20.8,24.8
	c1.8,2.1,3,3.1,3.8,3.2c1.2,0.2,2.4-0.3,3.7-1.3l1.1-0.9l0.7,0.9L510,568.4l-0.7-0.9l1.1-1c1.4-1.2,2.1-2.4,1.9-3.7
	c-0.1-0.8-0.8-2.1-2.4-3.9L489,534l-3.9,3.3c-1.6,1.3-2.5,2.3-2.9,3c-0.6,1-0.8,2.2-0.7,3.6c0.1,1.4,0.8,2.8,1.8,4.4l-0.8,0.7
	l-6.1-7.9L503,518.8z"/>
<path d="M536.1,519.4l-17.8-5.6l8.4,16.7L536.1,519.4z M538.4,520.2l-10.6,12.6l3.3,6.5c0.8,1.7,1.5,2.7,2.1,3.2
	c0.5,0.4,1.1,0.6,1.9,0.4c0.7-0.2,1.8-1,3.2-2.5l0.9,0.7l-8.6,10.2l-0.9-0.7c0.9-1.5,1.4-2.7,1.3-3.4c-0.1-1.4-0.9-3.6-2.4-6.6
	l-17.2-33.9l0.7-0.9l36.5,11.4c3,0.9,5.1,1.3,6.3,1.1c1.3-0.2,2.5-1,3.7-2.2l0.9,0.8L549,529.7l-0.9-0.7c1-1.4,1.5-2.4,1.5-3.2
	c0-0.7-0.2-1.3-0.8-1.8c-0.7-0.6-2.1-1.2-4.1-1.9L538.4,520.2z"/>
<path d="M538.8,468.7l12.4,7.8l-0.6,1c-2.6-1.2-4.8-1.8-6.7-1.9c-1.9,0-3.8,0.4-5.6,1.4c-1.7,1.1-3.1,2.4-4.1,3.9
	c-1.1,1.9-1.5,3.8-1.1,5.7c0.3,1.9,1.2,3.3,2.7,4.1c1,0.7,2.3,1,3.7,0.8c2-0.3,5.4-1.8,10.1-4.5c3.9-2.2,6.7-3.6,8.4-4.3
	c1.8-0.6,3.4-0.9,5.2-0.7c1.6,0.1,3.2,0.6,4.7,1.5c2.7,1.7,4.4,4.2,5.1,7.6c0.7,3.4,0,6.7-2.1,10c-0.6,1-1.4,2-2.1,2.8
	c-0.4,0.5-1.4,1.4-3.1,2.9c-1.6,1.3-2.6,2.2-2.9,2.7c-0.2,0.4-0.4,0.8-0.2,1.3c0.2,0.5,0.5,0.9,1.3,1.6l-0.6,0.9l-12.2-7.7l0.5-1
	c2.8,1.1,5.2,1.7,7,1.7c1.7,0,3.5-0.5,5.4-1.6c1.8-1.1,3.3-2.5,4.5-4.5c1.3-2.2,1.9-4.3,1.5-6.3c-0.3-2-1.3-3.5-2.9-4.5
	c-0.9-0.6-1.9-0.9-3.1-0.9c-1.2-0.1-2.6,0.1-3.9,0.7c-1,0.4-3.3,1.6-6.9,3.6c-3.7,2-6.4,3.3-8.3,4c-1.8,0.7-3.5,0.9-5.2,0.8
	c-1.6-0.1-3.1-0.6-4.6-1.5c-2.6-1.6-4.2-4-4.8-7.1c-0.6-3.1,0-6.2,1.9-9.3c1.2-1.9,2.9-3.7,5.2-5.2c1.1-0.7,1.7-1.3,2-1.7
	c0.3-0.5,0.4-1,0.3-1.4c-0.1-0.5-0.5-1.1-1.2-1.8L538.8,468.7z"/>
<path d="M82,313.1l22.6,2l-0.2,1.8c-4.4,0.2-7.9,1-10.6,2.2c-2.7,1.3-5,3.2-6.7,5.8c-1.7,2.6-2.7,5.5-3,8.4
	c-0.3,3.3,0.5,6.2,2.3,8.6c1.8,2.4,4,3.6,6.7,3.9c2,0.2,3.9-0.3,5.6-1.6c2.6-1.8,6.2-6.3,10.9-13.4c3.8-5.8,6.7-9.8,8.7-11.8
	c2-2.1,4.1-3.7,6.6-4.6c2.5-1,5-1.5,7.6-1.2c4.9,0.4,9,2.7,12.3,6.9c3.2,4.1,4.6,9.3,4,15.3c-0.1,1.9-0.4,3.7-0.9,5.3
	c-0.3,1-1,3-2.3,6.1c-1.3,3-2,5-2,5.8c-0.1,0.8,0.1,1.4,0.5,1.9c0.4,0.5,1.4,0.9,2.9,1.3l-0.2,1.8l-22.3-2l0.1-1.8
	c4.7-0.4,8.4-1.2,10.8-2.4c2.4-1.2,4.6-3.2,6.4-5.9c1.8-2.8,2.8-5.9,3.1-9.4c0.3-4-0.4-7.3-2.3-9.8c-1.9-2.6-4.3-3.9-7.3-4.2
	c-1.6-0.2-3.2,0.1-5,0.9c-1.7,0.7-3.4,1.9-5,3.7c-1.1,1.1-3.4,4.4-7,9.7c-3.6,5.3-6.5,9.1-8.6,11.3c-2,2.2-4.2,3.8-6.6,4.8
	c-2.4,1-5,1.4-7.6,1.2c-4.8-0.4-8.6-2.6-11.7-6.5c-3-3.9-4.3-8.6-3.9-14.1c0.3-3.5,1.5-7.1,3.5-10.9c1-1.7,1.5-3,1.6-3.7
	c0.1-0.9-0.1-1.6-0.5-2.1c-0.5-0.6-1.4-1.1-2.9-1.6L82,313.1z"/>
<path d="M139.9,262l-28.7,0.4l20.3,20.5L139.9,262z M143.7,262l-9.5,23.6l7.9,8c1.9,1.9,3.6,3.2,4.7,3.6c0.9,0.4,2,0.3,3-0.3
	c1.1-0.6,2.3-2.3,3.7-5.2l1.7,0.7l-7.8,19.1l-1.7-0.7c0.6-2.7,0.7-4.6,0.2-5.6c-0.8-2.1-3.1-5-6.7-8.6L97.9,255l0.7-1.6l59.1-0.7
	c4.8-0.1,8-0.6,9.8-1.4c1.7-0.9,3.2-2.6,4.4-5l1.7,0.7l-9.7,24l-1.6-0.7c0.8-2.5,1.1-4.2,0.7-5.3c-0.3-1.1-1-1.9-2-2.3
	c-1.3-0.5-3.6-0.8-7-0.8L143.7,262z"/>
<path d="M122.9,204.8l11.9-13.2l63.4,3.1l-28.1-25.3c-3-2.7-5.1-4-6.5-4c-1.8,0-3.6,0.9-5.3,2.8l-1.6,1.7l-1.3-1.2l15.3-17l1.3,1.2
	l-1.6,1.7c-1.9,2-2.5,4.1-2.1,6c0.3,1.2,1.8,3.1,4.6,5.5l41.1,37.1l-1.2,1.2l-68.2-3.2l30.1,27c3,2.7,5.1,4,6.4,4
	c1.8,0,3.6-0.9,5.3-2.8l1.6-1.8l1.3,1.2L174.1,246l-1.3-1.2l1.5-1.7c1.8-2.1,2.5-4.1,2.1-6.1c-0.3-1.3-1.9-3.1-4.6-5.6L138,201
	c-2.9-0.1-5,0-6.2,0.3c-1.2,0.2-2.6,0.9-4.4,1.9c-0.9,0.5-1.9,1.5-3.1,2.9L122.9,204.8z"/>
<path d="M233,110.7l8.5,12.8l-1.6,0.9c-1.7-2.2-3.1-3.5-4.3-4.3c-1.8-1.1-3.6-1.6-5.6-1.5c-1.9,0.1-3.9,0.9-6.2,2.2l-7.9,4.7
	l25.8,43c2.1,3.4,3.7,5.4,5,5.8c1.7,0.5,3.7,0.1,5.9-1.2l2-1.2l0.9,1.5l-23.8,14.3l-0.9-1.5l2-1.2c2.4-1.4,3.6-3.1,3.7-5.2
	c0-1.3-0.8-3.4-2.7-6.6l-25.8-43l-6.8,4.1c-2.6,1.5-4.3,2.8-5.2,3.9c-1.1,1.4-1.7,3.1-1.9,5.3c-0.1,2.1,0.5,4.5,1.9,7.1l-1.6,0.9
	l-7.2-13.6L233,110.7z"/>
<path d="M284.9,96.1c-5.7,1.4-9.7,4.7-12.1,9.8c-3,6.3-3.2,14.6-0.7,24.7c2.6,10.4,6.8,17.8,12.7,22.4c4.5,3.4,9.5,4.4,15.1,3
	c6-1.6,10.3-5.1,13-10.7c2.8-5.6,2.9-13.5,0.4-23.5c-2.7-10.9-6.9-18.5-12.6-22.7C296.3,95.6,291,94.6,284.9,96.1 M285,92.5
	c8.2-2.1,16.2-0.7,23.7,4.1c7.6,4.8,12.7,11.8,15,21.2c2.4,9.7,1.4,18.5-3.1,26.4c-4.5,7.9-11.1,12.9-19.8,15.1
	c-8.7,2.2-16.9,0.9-24.4-3.8c-7.5-4.7-12.5-12.1-15-22c-2.5-10.1-1.1-19.2,4.2-27.3C270.2,99.1,276.7,94.5,285,92.5"/>
<path d="M416.3,94.4l-1.7,15.3l-1.8-0.3c0-2.7-0.2-4.8-0.6-6c-0.7-2-1.8-3.6-3.3-4.7c-1.5-1.1-3.5-2-6.3-2.4l-9.1-1.4l-7.9,49.5
	c-0.7,4-0.6,6.5,0.1,7.7c1,1.5,2.7,2.5,5.2,2.9l2.3,0.3l-0.3,1.7l-27.5-4.3l0.3-1.8l2.3,0.3c2.7,0.4,4.9,0,6.2-1.6
	c0.9-0.8,1.6-3.2,2.2-6.8l7.8-49.5l-7.8-1.3c-3-0.5-5.2-0.6-6.5-0.3c-1.8,0.3-3.3,1.2-4.8,2.8c-1.4,1.5-2.5,3.8-3.2,6.7l-1.9-0.3
	l3.2-15.1L416.3,94.4z"/>
<path d="M468,118.4c-5.2-2.8-10.4-3-15.5-0.9c-6.5,2.7-12.2,8.7-17.1,17.9c-5,9.5-6.8,17.8-5.5,25.1c1.1,5.6,4.1,9.6,9.2,12.4
	c5.5,2.9,11,3.1,16.9,0.8c5.8-2.4,11.1-8.1,16-17.2c5.3-9.9,7.2-18.4,5.9-25.3C476.8,125.6,473.5,121.4,468,118.4 M470.4,115.7
	c7.5,4,12.4,10.3,15,18.9c2.4,8.7,1.4,17.2-3.2,25.8c-4.7,8.8-11.3,14.6-19.9,17.5c-8.7,2.9-16.9,2.2-24.8-2
	c-8-4.3-13.2-10.6-15.6-19.2c-2.4-8.6-1.2-17.3,3.6-26.3c4.9-9.2,12.1-15.1,21.3-17.5C455,110.8,462.8,111.7,470.4,115.7"/>
<path d="M496.7,220l25.9-54.9l-33.5,28.2c-3.1,2.6-4.8,4.5-5,5.8c-0.2,1.8,0.4,3.7,2.1,5.6l1.5,1.8l-1.4,1.1l-14.7-17.5l1.4-1.1
	l1.5,1.8c1.8,2.1,3.6,3.1,5.7,2.9c1.3-0.1,3.3-1.4,6.1-3.7l32.8-27.6c2.2-1.9,3.6-3.4,4.2-4.8c0.5-0.9,0.5-2.1,0.2-3.4
	c-0.3-1.4-1.2-3-3-5.1l1.3-1.1l12,14.2l-24,51.2l54.4-15.1l12,14.2l-1.4,1.2l-1.5-1.8c-1.8-2.2-3.7-3.2-5.7-2.9
	c-1.3,0.1-3.3,1.3-6.1,3.7l-32.9,27.6c-3.1,2.6-4.8,4.5-4.9,5.8c-0.4,1.8,0.4,3.7,2,5.7l1.4,1.7l-1.3,1.2L508,233.5l1.3-1.1l1.5,1.8
	c1.8,2.1,3.7,3.1,5.8,2.9c1.2-0.1,3.2-1.3,6-3.7l33.7-28.2l-58.6,16.1L496.7,220z"/>
<path d="M622.8,284.7l-20.3-8.4l-0.5-1.6l17.4-0.3L622.8,284.7z M563.6,289.7l21.8-18.7l-28.7-2.7L563.6,289.7z M560.6,292.1
	l-7.8-24.2l-11.2-1c-2.8-0.2-4.8-0.2-5.9,0.2c-1,0.3-1.7,1-2.1,2.2c-0.4,1.1-0.2,3.3,0.6,6.3l-1.8,0.6l-6.4-19.7l1.7-0.6
	c1.3,2.5,2.4,4,3.5,4.5c2,1.1,5.5,1.9,10.6,2.3l58.5,5.3l0.5,1.6L556,308.2c-3.6,3.1-5.8,5.5-6.6,7.4c-0.7,1.9-0.8,4.1-0.1,6.6
	l-1.6,0.6l-8-24.6l1.7-0.5c0.9,2.5,1.9,4,2.9,4.6c1.1,0.7,2,0.9,3.1,0.6c1.3-0.4,3.3-1.8,5.7-3.9L560.6,292.1z"/>
<path d="M614.5,364.5l-22.7,0.4v-1.8c4.3-0.6,7.8-1.7,10.3-3.3c2.6-1.6,4.6-3.7,6-6.5c1.5-2.8,2.2-5.6,2.1-8.6
	c-0.1-3.3-1.1-6.1-3.2-8.3c-2.1-2.2-4.4-3.2-7-3.2c-2,0-3.9,0.8-5.5,2.2c-2.4,2-5.4,6.8-9.3,14.4c-3.3,6.2-5.7,10.4-7.4,12.6
	c-1.7,2.3-3.7,4-6.1,5.3c-2.4,1.3-4.8,2-7.4,2c-5,0.1-9.3-1.8-13-5.5c-3.6-3.8-5.5-8.7-5.6-14.8c-0.1-1.8,0.1-3.6,0.4-5.3
	c0.1-1,0.7-3.1,1.6-6.2c1-3.2,1.4-5.2,1.4-6c0-0.8-0.3-1.4-0.7-2c-0.5-0.4-1.5-0.8-3-1l0-1.8l22.5-0.4l0,1.8
	c-4.7,0.9-8.2,2.1-10.5,3.6c-2.3,1.5-4.2,3.6-5.7,6.6c-1.4,3-2.2,6.2-2.1,9.7c0.1,4,1.2,7.1,3.3,9.5c2.2,2.3,4.7,3.5,7.6,3.4
	c1.7,0,3.3-0.5,4.9-1.4c1.7-0.9,3.2-2.3,4.6-4.2c1-1.3,2.9-4.7,6-10.4c3.1-5.7,5.5-9.7,7.3-12.2c1.8-2.4,3.9-4.2,6.1-5.4
	c2.2-1.3,4.7-1.9,7.4-2c4.8-0.1,8.8,1.7,12.3,5.2c3.5,3.6,5.2,8.1,5.4,13.7c0,3.5-0.7,7.2-2.4,11.1c-0.7,1.8-1.2,3.1-1.1,3.8
	c0,0.8,0.3,1.5,0.8,2c0.5,0.6,1.6,1,3.1,1.3V364.5z"/>
<path d="M812.2,311.6c-4.1-2-4.4-3-4.4-10.7c0-14,1.3-25.4,1.6-30.1c0-3,0.7-4.6,2.3-4.6c1.7,0,2.7,1,2.7,3.3c0,2.4,0,6.4,1,10.4
	c4.6,20.8,26.8,28.1,46.5,28.1c29.1,0,44.2-16.4,44.2-37.8c0-20.4-11.1-30.1-37.2-49.6l-13.4-10c-31.8-23.7-42.2-41.1-42.2-60.9
	c0-33.4,26.5-53.6,65.3-53.6c11.6,0,23.4,1.7,30.4,3.4c5.7,1.3,8.1,1.3,10.4,1.3c2.4,0,3,0.3,3,2c0,1.4-1.3,10.7-1.3,30.2
	c0,4.3-0.4,6.4-2.4,6.4c-2,0-2.4-1.3-2.7-3.7c-0.3-3.4-2.6-11-4.4-14c-2-3.3-11.7-14.1-38.1-14.1c-21.4,0-39.2,10.8-39.2,30.8
	c0,18.1,9.1,28.5,38.2,48.2l8.4,5.7c35.8,24.4,48.2,44.2,48.2,68.6c0,16.7-6.3,34.8-27.4,48.6c-12.4,8-30.8,10-46.9,10
	C841.3,319.3,824.2,317.3,812.2,311.6"/>
<path d="M1079.6,224.6c1.4,0,1.4-0.7,1-1.9l-29.1-78c-1.7-4.4-3.4-4.4-5,0l-27.5,78c-0.4,1.2,0,1.9,0.9,1.9H1079.6z M1046.8,106.1
	c3.7-9.3,5.1-11,7-11c3,0,4,4,7,10.4c5.3,12.1,52.5,129.5,70.6,172.7c10.7,25.4,18.8,29.1,25.1,31.1c4.4,1.4,8.7,1.7,11.7,1.7
	c1.7,0,3.7,0.7,3.7,2.4c0,1.7-3.4,2.3-6.7,2.3c-4.4,0-26.1,0-46.6-0.6c-5.7-0.4-10.3-0.4-10.3-2c0-1.3,0.6-1.3,2-2
	c1.6-0.7,4.7-3,2.7-7.7l-26.4-65.2c-0.7-1.3-1.1-1.7-2.7-1.7H1016c-1.3,0-2.3,0.6-3,2.3l-16.7,45.5c-2.7,7-4.3,14-4.3,19
	c0,5.7,5,7.7,10,7.7h2.7c2.4,0,3,1,3,2.4c0,1.7-1.7,2.3-4.4,2.3c-7,0-23.1-1-26.5-1c-3,0-17.7,1-29.8,1c-3.7,0-5.7-0.6-5.7-2.3
	c0-1.3,1.3-2.4,2.6-2.4c2.1,0,6.4-0.3,8.7-0.7c13.4-1.7,19.1-11.7,24.7-26.1L1046.8,106.1z"/>
<path d="M1212.7,276.8c0.7,23.5,3.3,30.4,11.4,32.5c5.3,1.3,12,1.7,14.7,1.7c1.3,0,2.3,1,2.3,2.3c0,1.7-2,2.4-5.3,2.4
	c-16.7,0-28.4-1-31.2-1c-2.6,0-15,1-28.5,1c-3,0-4.7-0.4-4.7-2.4c0-1.3,1-2.3,2.3-2.3c2.3,0,7.7-0.4,12.1-1.7
	c7.4-2,8.4-9.7,8.4-35.5v-163c0-11.4,1.7-14.4,4-14.4c3.4,0,8.4,5.7,11.4,8.7c4.6,4.7,47.5,50.2,93,97
	c29.1,30.1,60.6,63.9,69.6,73.4l-3-142.5c-0.3-18.5-2-24.8-11.1-26.4c-5.3-1.1-12-1.4-14.4-1.4c-2,0-2.3-1.6-2.3-2.6
	c0-1.7,2.3-2,5.7-2c13.4,0,27.5,0.6,30.8,0.6c3.3,0,13-0.6,25.1-0.6c3,0,5.4,0.3,5.4,2c0,1-1.3,2.6-3.3,2.6c-1.4,0-3.6,0-7.1,0.7
	c-9.7,2-10.4,7.7-10.4,24.8l-0.6,166.7c0,18.8-0.4,20.4-2.3,20.4c-3.1,0-6-2.3-22.5-17.4c-3-2.7-45.5-44.6-76.6-77.1
	c-34.1-35.8-67.3-70.6-76.3-80.6L1212.7,276.8z"/>
<path d="M1532.9,232.9c0,27.4,0,49.9,1.3,61.6c1,8.4,2.4,13.7,11.4,15.1c4,0.6,10.7,1.3,13.4,1.3c2,0,2.4,1.4,2.4,2.3
	c0,1.3-1.3,2.3-4.7,2.3c-16.1,0-34.8-1-36.4-1c-1.4,0-21.8,1-30.5,1c-3.3,0-4.7-0.6-4.7-2.3c0-1,0.7-2,2.4-2c2.7,0,6-0.6,8.7-1.3
	c6-1.3,7.7-7,8.7-15.4c1.4-11.7,1.4-34.2,1.4-61.6V113.5l-42.5,0.7c-18.4,0.3-25.5,2.4-29.8,9c-3.3,5-3.7,7.1-4.7,9
	c-0.7,2.4-1.7,2.7-3,2.7c-0.7,0-2-0.7-2-2.4c0-3,6-28.4,6.4-30.7c0.7-1.7,2-5.4,3-5.4c2,0,5,2.4,13,3.3c8.4,1,19.7,1.4,23.1,1.4
	h111.2c9.6,0,16.4-0.7,21.1-1.4c4.3-0.7,7-1.3,8.4-1.3c1.3,0,1.3,1.7,1.3,3.3c0,8.7-1,29.1-1,32.4c0,2.4-1.3,3.7-2.7,3.7
	c-1.4,0-2-1-2.4-5l-0.3-3c-1-8.7-7.4-15.1-35.5-15.7l-36.8-0.7V232.9z"/>
<path d="M1744.7,307.6c26.4,0,79.7-14,79.7-96.4c0-68.3-41.5-104.1-88-104.1c-49.2,0-84.7,30.9-84.7,92.7
	C1651.7,266.1,1691.5,307.6,1744.7,307.6 M1738,96.4c66.3,0,116.4,40.5,116.4,106.8c0,63.6-47.2,116.1-118.1,116.1
	c-80.7,0-115.1-60.5-115.1-111.7C1621.2,161.6,1656.7,96.4,1738,96.4"/>
<path d="M899,520.9c0,27.2,0,49.3,1.3,60.9c1,8.2,2.3,13.5,11.3,14.9c4,0.7,10.6,1.3,13.2,1.3c2,0,2.3,1.3,2.3,2.4
	c0,1.3-1.3,2.3-4.7,2.3c-15.9,0-34.4-1-36.1-1c-1.3,0-21.5,1-30.1,1c-3.3,0-4.6-0.6-4.6-2.3c0-1,0.7-2,2.3-2c2.7,0,6-0.6,8.7-1.3
	c5.9-1.3,7.6-7,8.6-15.2c1.3-11.6,1.3-33.7,1.3-60.9V402.7l-42.1,0.7c-18.2,0.3-25.1,2.3-29.5,8.9c-3.3,4.9-3.6,6.9-4.6,8.9
	c-0.7,2.3-1.7,2.6-3,2.6c-0.6,0-2-0.7-2-2.3c0-3,5.9-28.1,6.3-30.5c0.7-1.6,2-5.3,3-5.3c2,0,5,2.4,13,3.3c8.3,1,19.5,1.4,22.8,1.4
	h109.9c9.6,0,16.2-0.7,20.8-1.4c4.3-0.6,6.9-1.3,8.3-1.3c1.3,0,1.3,1.7,1.3,3.3c0,8.6-1,28.8-1,32.1c0,2.3-1.3,3.7-2.6,3.7
	c-1.3,0-2-1-2.3-5l-0.4-3c-1-8.6-7.3-14.9-35.1-15.5l-36.4-0.7V520.9z"/>
<path d="M1108.5,594.7c26.1,0,78.8-13.9,78.8-95.3c0-67.5-41-102.9-87-102.9c-48.7,0-83.7,30.4-83.7,91.7
	C1016.5,553.7,1055.8,594.7,1108.5,594.7 M1101.8,385.8c65.5,0,115.2,40,115.2,105.6c0,62.9-46.7,114.9-116.9,114.9
	c-79.8,0-113.9-59.9-113.9-110.6C986.3,450.4,1021.4,385.8,1101.8,385.8"/>
<path d="M1468,566.2c1,10,3,25.2,14.9,29.1c8.3,2.7,15.9,2.7,18.9,2.7c1.3,0,2.3,0.7,2.3,2c0,1.7-2.7,2.6-5.9,2.6
	c-6.7,0-39.1-0.6-49.7-1.6c-7-0.6-8.3-1.7-8.3-3c0-1,0.7-1.9,2-2.3c1.7-0.4,2-4.6,1.3-9.9l-13.9-142.3h-0.6L1358.7,587
	c-6,12.2-7.6,14.9-10.3,14.9c-2.6,0-4.3-2.7-9.9-12.9c-7.6-13.9-26.8-50-34.1-65.2c-8.5-17.9-32.1-65.2-37-76.8h-1.3l-11.3,127.1
	c-0.3,4.3-0.3,9.6-0.3,14.3c0,4.2,2.6,6.9,6.9,7.9c5,1.3,9.3,1.6,11.2,1.6c1,0,2.3,1,2.3,2c0,2-2,2.6-5.3,2.6c-11,0-24.9-1-27.1-1
	c-2.6,0-16.6,1-24.5,1c-3,0-5-0.6-5-2.6c0-1,1.4-2,3-2c2.3,0,4.3-0.3,8.6-1c9.6-1.7,9.9-11.9,11.3-22.5l21.1-183.7
	c0.4-3,1.6-5,3.3-5c2,0,4.3,1,6,4.3l88,174.8l84.7-174.4c1.3-2.7,2.7-4.7,4.6-4.7c2,0,3.7,2.3,4.3,7.6L1468,566.2z"/>
<path d="M1661.7,345.4c1.6,3,0,4-1.3,4c-1,0-4.3-0.7-9.9,0c-16.3,1.6-39.4,9.2-50.4,13.8c-2.3,1-4.3,1.7-4.9,1.7
	c-0.7,0-1.7-0.7-1.7-2c0-1,0.7-1.6,2.4-2.7c11.9-8.2,42.7-26.8,45-28.1c5.6-3.3,7.6-4.3,9.3-4.3c1,0,1.7,0.7,3.3,3
	C1655.8,334.2,1658.1,338.8,1661.7,345.4 M1636,512.6c1.3,0,1.3-0.7,1-2l-28.9-77.2c-1.6-4.3-3.3-4.3-4.9,0l-27.1,77.2
	c-0.4,1.3,0,2,1,2H1636z M1603.5,395.5c3.6-9.3,4.9-10.9,6.9-10.9c3,0,4,4,7,10.2c5.3,11.9,52,128.1,69.9,170.8
	c10.6,25.1,18.5,28.8,24.8,30.8c4.3,1.3,8.6,1.6,11.6,1.6c1.7,0,3.7,0.7,3.7,2.4c0,1.6-3.3,2.3-6.7,2.3c-4.3,0-25.8,0-46-0.6
	c-5.6-0.4-10.2-0.4-10.2-2c0-1.3,0.7-1.3,1.9-2c1.6-0.6,4.7-3,2.7-7.6l-26.1-64.5c-0.6-1.3-1-1.6-2.6-1.6h-67.2
	c-1.3,0-2.3,0.7-3,2.3l-16.6,45c-2.6,6.9-4.2,13.9-4.2,18.8c0,5.6,4.9,7.6,9.9,7.6h2.6c2.3,0,3,1,3,2.4c0,1.6-1.7,2.3-4.3,2.3
	c-7,0-22.9-1-26.1-1c-3,0-17.6,1-29.5,1c-3.6,0-5.6-0.6-5.6-2.3c0-1.4,1.3-2.4,2.7-2.4c2,0,6.2-0.3,8.5-0.6
	c13.3-1.6,18.9-11.6,24.5-25.8L1603.5,395.5z"/>
<path d="M1733.9,598.6c-4-1.9-4.3-3-4.3-10.5c0-13.9,1.3-25.1,1.7-29.8c0-3,0.7-4.6,2.3-4.6c1.7,0,2.7,1,2.7,3.3c0,2.3,0,6.2,1,10.2
	c4.7,20.5,26.5,27.8,46,27.8c28.8,0,43.7-16.2,43.7-37.4c0-20.2-11-29.8-36.7-49l-13.3-9.9c-31.4-23.5-41.7-40.7-41.7-60.2
	c0-33.1,26.2-53,64.6-53c11.6,0,23.1,1.7,30.1,3.3c5.6,1.4,7.9,1.4,10.2,1.4c2.4,0,3,0.3,3,1.9c0,1.3-1.3,10.6-1.3,29.8
	c0,4.3-0.3,6.3-2.3,6.3c-2,0-2.3-1.3-2.6-3.6c-0.3-3.3-2.7-11-4.3-13.9c-2-3.3-11.5-13.9-37.7-13.9c-21.2,0-38.8,10.6-38.8,30.4
	c0,17.8,8.9,28.2,37.8,47.7l8.2,5.6c35.4,24.1,47.7,43.7,47.7,67.8c0,16.6-6.3,34.5-27.1,48c-12.2,7.9-30.4,9.9-46.3,9.9
	C1762.6,606.2,1745.8,604.3,1733.9,598.6"/>
<path d="M1871.9,110.2h4.6c1.9,0,3.3,0.2,4,0.4c0.7,0.3,1.3,0.8,1.7,1.3c0.4,0.6,0.6,1.2,0.6,1.9c0,1.2-0.4,2.1-1.3,2.7
	c-0.9,0.7-2.4,1.1-4.7,1.1h-4.9V110.2z M1871.9,131.6v-10.5h2.4c1.4,0,2.5,0.2,3.2,0.8c1,0.8,2.4,2.7,4.1,5.8l2.2,3.9h4.9l-3-4.9
	c-1.4-2.3-2.7-3.9-3.7-4.8c-0.5-0.5-1.2-1-2.1-1.3c2.1-0.1,3.8-0.9,5.1-2.3c1.3-1.3,2-2.9,2-4.7c0-1.3-0.4-2.5-1.2-3.6
	c-0.8-1.2-1.8-2-3.1-2.5c-1.3-0.4-3.4-0.7-6.3-0.7h-8.5v24.7H1871.9z M1887.4,102.2c3.1,1.6,5.5,4,7.2,7.1c1.7,3.1,2.6,6.3,2.6,9.6
	c0,3.3-0.9,6.5-2.5,9.6c-1.7,3-4.1,5.3-7.1,7.1c-3,1.7-12.1,2.5-9.5,2.5c3.3,0-6.4-0.8-9.6-2.5c-3-1.7-5.4-4.1-7.1-7.1
	c-1.7-3.1-2.6-6.2-2.6-9.6c0-3.4,0.9-6.5,2.6-9.6c1.7-3.1,4.1-5.4,7.2-7.1c3.1-1.7,6.2-2.5,9.4-2.5
	C1881.2,99.7,1884.3,100.5,1887.4,102.2 M1866.7,98.8c-3.7,2-6.5,4.8-8.6,8.5c-2,3.7-3.1,7.5-3.1,11.6c0,3.9,1.1,7.8,3.1,11.4
	c2,3.7,4.9,6.5,8.5,8.5c3.7,2,7.4,3,11.4,3c4,0,7.8-1,11.4-3c3.6-2,6.5-4.8,8.5-8.5c2-3.6,3-7.5,3-11.4c0-4-1.1-7.9-3.1-11.6
	c-2-3.7-4.9-6.6-8.6-8.5c-3.7-2-7.4-3-11.3-3C1874.2,95.9,1870.3,96.9,1866.7,98.8"/>
</svg>
